<?xml version="1.0" encoding="UTF-8" standalone="no"?>
<!-- Created with Inkscape (http://www.inkscape.org/) -->

<svg
   width="100"
   height="100"
   viewBox="0 0 26.458333 26.458333"
   version="1.1"
   id="svg1"
   xmlns="http://www.w3.org/2000/svg"
   xmlns:svg="http://www.w3.org/2000/svg">
  <defs
     id="defs1" />
  <g
     id="layer1">
    <path
       style="fill:none;stroke:#000000;stroke-width:2.64582;stroke-linecap:round;stroke-linejoin:round;stroke-miterlimit:0;stroke-dasharray:none;stroke-opacity:1;paint-order:fill markers stroke"
       id="path1"
       d="M 5.836414,16.123687 A 7.9392467,7.9392776 0 0 1 10.316238,5.8436506 7.9392467,7.9392776 0 0 1 20.607436,10.297699 7.9392467,7.9392776 0 0 1 16.179226,20.600074 7.9392467,7.9392776 0 0 1 5.8658189,16.197696" />
    <path
       style="fill:#000000;fill-opacity:1;stroke:#000000;stroke-width:2.64583;stroke-linecap:round;stroke-linejoin:round;stroke-miterlimit:0;stroke-dasharray:none;stroke-opacity:1;paint-order:fill markers stroke"
       id="path2"
       d="m 20.99933,13.86379 a 5.3999033,5.4324336 0 0 1 -5.695609,2.032931 5.3999033,5.4324336 0 0 1 -4.002893,-4.554999 5.3999033,5.4324336 0 0 1 2.703698,-5.4375065 l 2.650597,4.7329445 z" />
    <path
       style="fill:#000000;fill-opacity:1;stroke:#000000;stroke-width:2.64584;stroke-linecap:round;stroke-linejoin:round;stroke-miterlimit:0;stroke-dasharray:none;stroke-opacity:1;paint-order:fill markers stroke"
       id="path3"
       d="m 13.629562,11.747707 a 2.6357849,2.6494102 0 0 1 1.487276,-3.4305431 2.6357849,2.6494102 0 0 1 3.416619,1.4863572 2.6357849,2.6494102 0 0 1 -1.47014,3.4379979 2.6357849,2.6494102 0 0 1 -3.423993,-1.469115" />
    <path
       style="fill:#000000;fill-opacity:1;stroke:#000000;stroke-width:2.64583;stroke-linecap:round;stroke-linejoin:round;stroke-miterlimit:0;stroke-dasharray:none;stroke-opacity:1;paint-order:fill markers stroke"
       d="m 13.229167,2.1166667 v -0.79375"
       id="path4" />
    <path
       style="fill:#000000;fill-opacity:1;stroke:#000000;stroke-width:2.64583;stroke-linecap:round;stroke-linejoin:round;stroke-miterlimit:0;stroke-dasharray:none;stroke-opacity:1;paint-order:fill markers stroke"
       d="M 22.257098,22.257098 21.695832,21.695832"
       id="path4-4" />
    <path
       style="fill:#000000;fill-opacity:1;stroke:#000000;stroke-width:2.64583;stroke-linecap:round;stroke-linejoin:round;stroke-miterlimit:0;stroke-dasharray:none;stroke-opacity:1;paint-order:fill markers stroke"
       d="M 5.059181,5.059181 4.497915,4.497915"
       id="path4-4-3" />
    <path
       style="fill:#000000;fill-opacity:1;stroke:#000000;stroke-width:2.64583;stroke-linecap:round;stroke-linejoin:round;stroke-miterlimit:0;stroke-dasharray:none;stroke-opacity:1;paint-order:fill markers stroke"
       d="m 21.695832,5.3237643 0.561266,-0.561266"
       id="path4-5" />
    <path
       style="fill:#000000;fill-opacity:1;stroke:#000000;stroke-width:2.64583;stroke-linecap:round;stroke-linejoin:round;stroke-miterlimit:0;stroke-dasharray:none;stroke-opacity:1;paint-order:fill markers stroke"
       d="m 4.7624983,22.257098 0.561266,-0.561266"
       id="path4-5-9" />
    <path
       style="fill:#000000;fill-opacity:1;stroke:#000000;stroke-width:2.64583;stroke-linecap:round;stroke-linejoin:round;stroke-miterlimit:0;stroke-dasharray:none;stroke-opacity:1;paint-order:fill markers stroke"
       d="m 13.229167,24.341667 v 0.79375"
       id="path5" />
    <path
       style="fill:#000000;fill-opacity:1;stroke:#000000;stroke-width:2.64583;stroke-linecap:round;stroke-linejoin:round;stroke-miterlimit:0;stroke-dasharray:none;stroke-opacity:1;paint-order:fill markers stroke"
       d="m 24.341667,13.229167 h 0.79375"
       id="path6" />
    <path
       style="fill:#000000;fill-opacity:1;stroke:#000000;stroke-width:2.64583;stroke-linecap:round;stroke-linejoin:round;stroke-miterlimit:0;stroke-dasharray:none;stroke-opacity:1;paint-order:fill markers stroke"
       d="m 1.3229167,13.229167 h 0.79375"
       id="path10" />
  </g>
</svg>
